<svg id="Layer_1" data-name="Layer 1" xmlns="http://www.w3.org/2000/svg" viewBox="0 0 1200 500"><defs><style>.cls-1{fill:#473b1e;}.cls-2{fill:#008ece;}.cls-3{fill:#1c3867;}.cls-4{fill:#ffc0bb;}.cls-5{fill:#0a223a;}.cls-6{fill:#fc8d84;opacity:0.6;}.cls-10,.cls-7{fill:#fff;}.cls-8{fill:#333;}.cls-9{fill:#f99893;}.cls-10{font-size:13.37px;font-family:Poppins-Bold, Poppins;font-weight:700;}</style></defs><title>steps-image-01</title><path class="cls-1" d="M532.63,62.25C521.07,90,540.74,100.1,517.39,122.3s-21.22,57,25,62.75,91-6.23,114.23-11.32,14.53-45.37-.95-64.66-.85-44.91-22.85-60.49C607.47,34,532.63,62.25,532.63,62.25Z"/><path class="cls-2" d="M742.36,39.07c-31.26,1.13-56,21.38-56.16,45.57L656.88,92l31.79,5.88C696,116.77,719,130,745.6,129.05c31.9-1.15,57-22.22,56.14-47.07S774.26,37.92,742.36,39.07Z"/><path class="cls-3" d="M760.26,140.51s.34,3.36,3,3.59c-2.65.24-3,3.6-3,3.6s-.34-3.36-3-3.6C759.92,143.87,760.26,140.51,760.26,140.51Z"/><path class="cls-3" d="M779.35,27.13s.6,5.94,5.29,6.35c-4.69.41-5.29,6.35-5.29,6.35s-.61-5.94-5.29-6.35C778.74,33.07,779.35,27.13,779.35,27.13Z"/><path class="cls-3" d="M712.13,42.9s.42,4.08,3.64,4.36c-3.22.28-3.64,4.36-3.64,4.36s-.41-4.08-3.63-4.36C711.72,47,712.13,42.9,712.13,42.9Z"/><path class="cls-3" d="M782.34,109.05s.83,8.16,7.27,8.73c-6.44.56-7.27,8.72-7.27,8.72s-.83-8.16-7.27-8.72C781.51,117.21,782.34,109.05,782.34,109.05Z"/><path class="cls-4" d="M604.55,50.21c1-.54,9.87-2.57,11.59-1.93s5.58,5.79,6,7.83,2.46.54.64,5.47,4,11.59-5.21,5.36-11.74-4.72-12.28-9.54S604.55,50.21,604.55,50.21Z"/><path class="cls-5" d="M577.08,502.93l5.06-89S540,359,519,320.84c-.5,38.88,1.06,108.71,3.25,182.09Z"/><path class="cls-5" d="M598.35,502.93h62.42L649.39,358.12l-25-31.39S522.18,251.52,519,341.22c-.15,4.31,8-11.62,8-6.22,32.71,71.83,55.2,83.42,55.2,83.42Z"/><path class="cls-4" d="M570.89,162.91l-.24-.32.8-27.33,30.48,6.63,2.52,21.21S584.57,182.09,570.89,162.91Z"/><path class="cls-6" d="M570.89,154.4l.56-19.14,30.91,10.07.84,7.18C596.32,155.05,583.25,158.1,570.89,154.4Z"/><path class="cls-7" d="M646.73,207.83l-15.79-16.44s-6.54-16.94-6.54-18.49-9.25-13.35-9.25-13.35l-6.48,1.07s-32.45,2.65-33.88,2.81-43.48,10.95-43.48,10.95-16.34,158.75-9.26,167c0,0,51.72,9.24,118.14,1.54,0,0,6-.51,10.35-16.95S646.73,207.83,646.73,207.83Z"/><path class="cls-4" d="M435.56,168a1.18,1.18,0,0,1-1.61,1.32c-6.75-2.8-28-11.49-29.13-9.94-1.32,1.85,17.51,10.08,17.36,12.18s-18.31-6.39-19.39-4.19,15.73,9.38,15.6,10.47-17-4.07-18.4-3.16,15.9,8.61,16.11,10-13.5,0-13.75,1.19-.62,1.89,29.4,13.76c0,0,11.35,2.5,13.65,5l10-2.76,3.09-13.85s-21.68-35.43-23.39-35.5S432.86,153.76,435.56,168Z"/><path class="cls-4" d="M552.72,119.46a83.75,83.75,0,0,1-2.3-19.94c0-1.31-.09-2.62-.19-3.93a45.73,45.73,0,0,1,1.71-16.4c5.23-18,21.13-30.54,38.65-30.49,23.59.08,41.28,21.52,39.19,46a8.13,8.13,0,0,1,7.79,0c4.53,2.65,5.62,9.75,2.45,15.85s-9.42,8.91-13.94,6.26a7.6,7.6,0,0,1-1.68-1.35c-3.76,20.7-21.09,35.5-40.19,33.58a34.55,34.55,0,0,1-23.28-12.81C557.14,132.25,554,125.05,552.72,119.46Z"/><path class="cls-8" d="M600.22,99.36a3.92,3.92,0,1,0,4.29-3.5A3.9,3.9,0,0,0,600.22,99.36Z"/><path class="cls-8" d="M567.08,99.36a3.92,3.92,0,1,0,4.29-3.5A3.9,3.9,0,0,0,567.08,99.36Z"/><path class="cls-1" d="M596.44,88.15a36.77,36.77,0,0,1,5.88.47,19.11,19.11,0,0,1,5.23,1.64,17.76,17.76,0,0,1,4.52,3.06l.54.46c.18.15.32.34.5.51l1,1c.67.71,1.25,1.51,2,2.26a16.29,16.29,0,0,0-.85-3,14.23,14.23,0,0,0-1.57-2.75,12.72,12.72,0,0,0-5-4.13,13.31,13.31,0,0,0-6.32-1.3A12.4,12.4,0,0,0,596.44,88.15Z"/><path class="cls-1" d="M580.28,88.88a12.4,12.4,0,0,0-5.79-2.36,13.41,13.41,0,0,0-6.42.65,12.72,12.72,0,0,0-5.36,3.61,14,14,0,0,0-1.85,2.58,17.5,17.5,0,0,0-1.15,2.9c.84-.66,1.5-1.4,2.25-2l1.12-.93c.19-.15.35-.32.54-.46l.59-.4A18.1,18.1,0,0,1,569,89.84a19.42,19.42,0,0,1,5.37-1.09A36.66,36.66,0,0,1,580.28,88.88Z"/><path class="cls-9" d="M586.52,99.4a21.53,21.53,0,0,1,.35,6,16.2,16.2,0,0,1-.5,3,7.73,7.73,0,0,1-1.46,3c-.92.92-1.32,1.15-1.54,1.92a2.75,2.75,0,0,0,.4,2.14,8.33,8.33,0,0,0,4.53,3,6.79,6.79,0,0,1-5.73-2.17,4.06,4.06,0,0,1-1-3.42,4.94,4.94,0,0,1,1.87-2.77,7.75,7.75,0,0,0,1.17-2.26,25.38,25.38,0,0,0,.75-2.73C585.82,103.3,586.14,101.37,586.52,99.4Z"/><path class="cls-7" d="M595.3,124.24H577.11c-1.52,0-2.31,2.49-1.25,4,2,2.84,5.44,6.16,10.34,6.16s8.32-3.32,10.35-6.16C597.6,126.73,596.82,124.24,595.3,124.24Z"/><path class="cls-4" d="M732.66,168a1.18,1.18,0,0,0,1.61,1.32c6.75-2.8,28-11.49,29.13-9.94,1.32,1.85-17.51,10.08-17.36,12.18s18.31-6.39,19.39-4.19-15.73,9.38-15.6,10.47,17-4.07,18.4-3.16-15.9,8.61-16.11,10,13.5,0,13.75,1.19.62,1.89-29.4,13.76c0,0-11.35,2.5-13.65,5l-10-2.76-3.09-13.85s21.68-35.43,23.39-35.5S735.36,153.76,732.66,168Z"/><path class="cls-3" d="M557.43,156s-42.75,5.31-58.2,39.35a113.51,113.51,0,0,0-7.92,26.76c-5-5.62-9.43-10.65-12.54-14.59-9.48-12-17.69-22.62-17.69-22.62-14.14,5.69-26.6,17.15-26.6,17.15,1.45,24.68,49.46,106.78,79.53,111.77-.07,17.65.74,40.22,5.15,45.64,0,0,18.57,3.52,48,4.74C570,337,580.36,231.45,580.32,159.6l-5.41.5C573.39,160.28,557.43,156,557.43,156Z"/><path class="cls-3" d="M733.74,202.09s-12.46-11.46-26.6-17.15c0,0-8.21,10.61-17.69,22.62-2.53,3.2-5.91,7.11-9.77,11.47-3.22-13.54-7.37-25.28-12-32.43-19.55-30.48-50.14-30.85-50.14-30.85l-6.85,1.2-22.93,2s2.22,84,10.09,205.6c14.21-.32,29.76-1.3,46.16-3.32,0,0,6.33-.57,10.94-19,1.16-4.65,1.48-15.38,1.3-28.83C686.45,305.15,732.32,226.21,733.74,202.09Z"/><path class="cls-4" d="M557.43,156s28.25,19.09,60.15-.29Z"/><path class="cls-7" d="M656.13,314.47c-.73-4.07-.44-2.44-1.16-6.6-2.73-15.88-2.08-12.05-3-19.81-2.16-17.66-4.27-34.71-7.34-52.85-1.44-8.09-3.21-18.69-6.45-26.19,2,3.65,3.49,9.18,4.5,13,1.13,4.37,2.07,8.75,2.92,13.15,3,15.55,5.84,37.28,7.34,52.88,1.09,11.31-.07,1.2,2.34,19.84C655.83,311.94,655.62,310.31,656.13,314.47Z"/><path class="cls-7" d="M514,313.87c.52-3.88.32-2.33.83-6.3,2-15.15,1.5-11.5,2.08-18.9,1.41-16.83,2.79-33.08,5-50.39,1-7.72,2.31-17.84,5-25-1.63,3.52-2.82,8.81-3.61,12.43-.86,4.18-1.57,8.37-2.19,12.57-2.25,14.85-4.11,35.56-5,50.42-.65,10.78.09,1.14-1.52,18.91C514.2,311.45,514.34,309.9,514,313.87Z"/><path class="cls-1" d="M632.73,48.58h.11c8.49.08,7.31-2.86,7.31-2.86-1.4-4.79-12.95-5.07-12.95-5.07a29.21,29.21,0,0,0,6.13-5.11c2.73-3.07-.34-4.84-.34-4.84-5.59-2.77-10,2.25-12.21,5.56-5.64-8.36-17.89-21.53-52.24-9.11S528.13,68.34,532.6,79c3.23,7.72,7.47,15.75,10.24,25.11.43,1.45,4.15,21.59,4.27,20.09C548.27,109.72,545,81.7,579,76.87c36.47-5.17,40-19.6,40-19.6s-4,15.14,3,29.75c2.83,5.9-2.35,18.2-2.85,24.72-1.49,19.53,2.82,20.73,2.85,23.52,0,1.24,13.87-4.72,14.53-5.78C643.22,118.89,654,68.24,632.73,48.58Z"/><text class="cls-10" transform="translate(702.65 79.52) scale(0.99 1)">FOLLOW <tspan x="0" y="16.04">THESE STEPS</tspan></text></svg>